<?xml version="1.0" encoding="utf-8"?>
<!-- Generator: Adobe Illustrator 26.0.3, SVG Export Plug-In . SVG Version: 6.00 Build 0)  -->
<svg version="1.1" xmlns="http://www.w3.org/2000/svg" xmlns:xlink="http://www.w3.org/1999/xlink" x="0px" y="0px"
	 viewBox="0 0 595.28 841.89" style="enable-background:new 0 0 595.28 841.89;" xml:space="preserve">
<style type="text/css">
	.st0{font-family:'MyriadPro-Regular';}
	.st1{font-size:32.8449px;}
	.st2{fill:url(#SVGID_1_);stroke:#000000;stroke-miterlimit:10;}
	.st3{font-size:12px;}
	.st4{fill:none;}
	.st5{fill:url(#SVGID_00000009568651399813924320000007442799903295616412_);stroke:#000000;stroke-miterlimit:10;}
	.st6{fill:url(#SVGID_00000154395859794544201260000012426440806377237384_);stroke:#000000;stroke-miterlimit:10;}
	.st7{fill:url(#SVGID_00000008838594856252936100000010960128665840058261_);stroke:#000000;stroke-miterlimit:10;}
	.st8{fill:url(#SVGID_00000025401230504202151130000016152595833235574187_);stroke:#000000;stroke-miterlimit:10;}
	.st9{fill:url(#SVGID_00000154425125619621416740000001735369701476948901_);stroke:#000000;stroke-miterlimit:10;}
	.st10{fill:url(#SVGID_00000081615427492771619740000016872541301883168672_);stroke:#000000;stroke-miterlimit:10;}
	.st11{fill:url(#SVGID_00000148663129136371845640000011428294529325596560_);stroke:#000000;stroke-miterlimit:10;}
	.st12{fill:url(#SVGID_00000021081364814230272420000000185068429815845514_);stroke:#000000;stroke-miterlimit:10;}
	.st13{fill:url(#SVGID_00000016046573702308749010000016778552546535900055_);stroke:#000000;stroke-miterlimit:10;}
	.st14{fill:url(#SVGID_00000143617338192052112030000002281021758821614765_);stroke:#000000;stroke-miterlimit:10;}
	.st15{fill:url(#SVGID_00000026854197519965985630000008255138563308955825_);stroke:#000000;stroke-miterlimit:10;}
	.st16{fill:url(#SVGID_00000026148293905747753490000014060455073563364749_);stroke:#000000;stroke-miterlimit:10;}
	.st17{fill:#8C74B5;stroke:#000000;stroke-miterlimit:10;}
	.st18{font-size:13.4177px;}
	.st19{fill:url(#SVGID_00000003812432575352987680000003521936975746869161_);stroke:#000000;stroke-miterlimit:10;}
	.st20{fill:url(#SVGID_00000163030411844378851890000003279231751847498134_);stroke:#000000;stroke-miterlimit:10;}
	.st21{fill:url(#SVGID_00000026150053250843336550000001470682669253314436_);stroke:#000000;stroke-miterlimit:10;}
	.st22{fill:url(#SVGID_00000081629633207724820230000012442795158392455566_);stroke:#000000;stroke-miterlimit:10;}
	.st23{fill:url(#SVGID_00000116207758913127637150000009418134873627450009_);stroke:#000000;stroke-miterlimit:10;}
	.st24{fill:url(#SVGID_00000178175382280406587820000002882537466465089446_);stroke:#000000;stroke-miterlimit:10;}
	.st25{fill:url(#SVGID_00000124878810753477116720000011502781462854007999_);stroke:#000000;stroke-miterlimit:10;}
	.st26{fill:url(#SVGID_00000117647115633362726000000000295982626167536798_);stroke:#000000;stroke-miterlimit:10;}
	.st27{fill:url(#SVGID_00000134932695927025382120000008355016091056879782_);stroke:#000000;stroke-miterlimit:10;}
	.st28{fill:url(#SVGID_00000111885495599764625120000001746368227140979603_);stroke:#000000;stroke-miterlimit:10;}
	.st29{fill:url(#SVGID_00000049927697931586834390000016777037469115931053_);stroke:#000000;stroke-miterlimit:10;}
	.st30{fill:url(#SVGID_00000099620163118053720490000017848875249070427523_);stroke:#000000;stroke-miterlimit:10;}
	.st31{fill:#D368A9;stroke:#000000;stroke-miterlimit:10;}
	.st32{font-size:13.7463px;}
	.st33{fill:none;stroke:#000000;stroke-miterlimit:10;}
	.st34{fill:none;stroke:#000000;stroke-miterlimit:10;stroke-dasharray:5.1585,5.1585;}
	.st35{fill:none;stroke:#000000;stroke-miterlimit:10;stroke-dasharray:5.0588,5.0588;}
	.st36{fill:none;stroke:#000000;stroke-miterlimit:10;stroke-dasharray:4.7495,4.7495;}
	.st37{font-size:17.4283px;}
	.st38{fill:#8DAC73;stroke:#000000;stroke-miterlimit:10;}
	.st39{font-size:17.7491px;}
	.st40{fill:none;stroke:#000000;stroke-miterlimit:10;stroke-dasharray:2;}
	.st41{font-size:33px;}
	.st42{fill:#93C4A8;stroke:#000000;stroke-miterlimit:10;}
	.st43{font-size:11.9745px;}
	.st44{stroke:#000000;stroke-miterlimit:10;}
</style>
<g id="Слой_1">
	<text transform="matrix(1.0047 0 0 1 296.602 206.3739)" class="st0 st1">...</text>
	<g>
		<g>
			<linearGradient id="SVGID_1_" gradientUnits="userSpaceOnUse" x1="140.4324" y1="218.2305" x2="203.454" y2="218.2305">
				<stop  offset="0" style="stop-color:#F656A0"/>
				<stop  offset="0.308" style="stop-color:#F66A7B"/>
				<stop  offset="0.5843" style="stop-color:#F77B5C"/>
				<stop  offset="0.778" style="stop-color:#F98845"/>
				<stop  offset="0.8726" style="stop-color:#F98E3D"/>
			</linearGradient>
			<rect x="140.43" y="205.02" class="st2" width="63.02" height="26.42"/>
			<text transform="matrix(1 0 0 1 142.6771 214.691)"><tspan x="0" y="0" class="st0 st3">Clone input</tspan><tspan x="0" y="14.4" class="st0 st3">     vector</tspan></text>
		</g>
		<line class="st4" x1="226.25" y1="202.93" x2="279.88" y2="58.83"/>
	</g>
</g>
<g id="InputLayer">
	<g>
		
			<linearGradient id="SVGID_00000103250511684248230950000001579332775694962334_" gradientUnits="userSpaceOnUse" x1="9.5675" y1="217.2344" x2="28.215" y2="217.2344">
			<stop  offset="0" style="stop-color:#F656A0"/>
			<stop  offset="0.308" style="stop-color:#F66A7B"/>
			<stop  offset="0.5843" style="stop-color:#F77B5C"/>
			<stop  offset="0.778" style="stop-color:#F98845"/>
			<stop  offset="0.8726" style="stop-color:#F98E3D"/>
		</linearGradient>
		
			<rect x="9.57" y="207.91" style="fill:url(#SVGID_00000103250511684248230950000001579332775694962334_);stroke:#000000;stroke-miterlimit:10;" width="18.65" height="18.65"/>
		<text transform="matrix(1 0 0 1 15.8133 220.7561)" class="st0 st3">0</text>
		
			<linearGradient id="SVGID_00000000202142959785071590000006889342427763857559_" gradientUnits="userSpaceOnUse" x1="28.215" y1="217.2344" x2="46.8625" y2="217.2344">
			<stop  offset="0" style="stop-color:#F656A0"/>
			<stop  offset="0.308" style="stop-color:#F66A7B"/>
			<stop  offset="0.5843" style="stop-color:#F77B5C"/>
			<stop  offset="0.778" style="stop-color:#F98845"/>
			<stop  offset="0.8726" style="stop-color:#F98E3D"/>
		</linearGradient>
		
			<rect x="28.22" y="207.91" style="fill:url(#SVGID_00000000202142959785071590000006889342427763857559_);stroke:#000000;stroke-miterlimit:10;" width="18.65" height="18.65"/>
		<text transform="matrix(1 0 0 1 34.4608 220.6492)" class="st0 st3">1</text>
		
			<linearGradient id="SVGID_00000088104729846967187420000004222280402174582156_" gradientUnits="userSpaceOnUse" x1="46.9488" y1="217.2344" x2="65.5963" y2="217.2344">
			<stop  offset="0" style="stop-color:#F656A0"/>
			<stop  offset="0.308" style="stop-color:#F66A7B"/>
			<stop  offset="0.5843" style="stop-color:#F77B5C"/>
			<stop  offset="0.778" style="stop-color:#F98845"/>
			<stop  offset="0.8726" style="stop-color:#F98E3D"/>
		</linearGradient>
		
			<rect x="46.95" y="207.91" style="fill:url(#SVGID_00000088104729846967187420000004222280402174582156_);stroke:#000000;stroke-miterlimit:10;" width="18.65" height="18.65"/>
		<text transform="matrix(1 0 0 1 55.1821 218.0986)" class="st0 st3">.</text>
		
			<linearGradient id="SVGID_00000000206027607109270930000017469215831035050148_" gradientUnits="userSpaceOnUse" x1="65.5963" y1="217.2344" x2="84.2438" y2="217.2344">
			<stop  offset="0" style="stop-color:#F656A0"/>
			<stop  offset="0.308" style="stop-color:#F66A7B"/>
			<stop  offset="0.5843" style="stop-color:#F77B5C"/>
			<stop  offset="0.778" style="stop-color:#F98845"/>
			<stop  offset="0.8726" style="stop-color:#F98E3D"/>
		</linearGradient>
		
			<rect x="65.6" y="207.91" style="fill:url(#SVGID_00000000206027607109270930000017469215831035050148_);stroke:#000000;stroke-miterlimit:10;" width="18.65" height="18.65"/>
		<text transform="matrix(1 0 0 1 73.8296 218.0986)" class="st0 st3">.</text>
		
			<linearGradient id="SVGID_00000129171290219240654390000008916959304379438748_" gradientUnits="userSpaceOnUse" x1="84.4468" y1="217.2344" x2="103.0943" y2="217.2344">
			<stop  offset="0" style="stop-color:#F656A0"/>
			<stop  offset="0.308" style="stop-color:#F66A7B"/>
			<stop  offset="0.5843" style="stop-color:#F77B5C"/>
			<stop  offset="0.778" style="stop-color:#F98845"/>
			<stop  offset="0.8726" style="stop-color:#F98E3D"/>
		</linearGradient>
		
			<rect x="84.45" y="207.91" style="fill:url(#SVGID_00000129171290219240654390000008916959304379438748_);stroke:#000000;stroke-miterlimit:10;" width="18.65" height="18.65"/>
		<text transform="matrix(1 0 0 1 92.6801 218.0986)" class="st0 st3">.</text>
		
			<linearGradient id="SVGID_00000179610684911005240250000007860114633125326010_" gradientUnits="userSpaceOnUse" x1="103.7418" y1="217.2344" x2="122.3893" y2="217.2344">
			<stop  offset="0" style="stop-color:#F656A0"/>
			<stop  offset="0.308" style="stop-color:#F66A7B"/>
			<stop  offset="0.5843" style="stop-color:#F77B5C"/>
			<stop  offset="0.778" style="stop-color:#F98845"/>
			<stop  offset="0.8726" style="stop-color:#F98E3D"/>
		</linearGradient>
		
			<rect x="103.74" y="207.91" style="fill:url(#SVGID_00000179610684911005240250000007860114633125326010_);stroke:#000000;stroke-miterlimit:10;" width="18.65" height="18.65"/>
		<text transform="matrix(1 0 0 1 105.7009 220.6487)" class="st0 st3">n-1</text>
	</g>
</g>
<g id="CrossCorrBlock">
	<g>
		<g>
			
				<linearGradient id="SVGID_00000142857831720160089200000009719909759881636243_" gradientUnits="userSpaceOnUse" x1="248.9357" y1="62.8771" x2="267.5832" y2="62.8771">
				<stop  offset="0" style="stop-color:#F656A0"/>
				<stop  offset="0.308" style="stop-color:#F66A7B"/>
				<stop  offset="0.5843" style="stop-color:#F77B5C"/>
				<stop  offset="0.778" style="stop-color:#F98845"/>
				<stop  offset="0.8726" style="stop-color:#F98E3D"/>
			</linearGradient>
			
				<rect x="248.94" y="53.55" style="fill:url(#SVGID_00000142857831720160089200000009719909759881636243_);stroke:#000000;stroke-miterlimit:10;" width="18.65" height="18.65"/>
			<text transform="matrix(1 0 0 1 255.1815 66.3989)" class="st0 st3">0</text>
			
				<linearGradient id="SVGID_00000140014002791203607520000000154025277924927679_" gradientUnits="userSpaceOnUse" x1="267.5832" y1="62.8771" x2="286.2307" y2="62.8771">
				<stop  offset="0" style="stop-color:#F656A0"/>
				<stop  offset="0.308" style="stop-color:#F66A7B"/>
				<stop  offset="0.5843" style="stop-color:#F77B5C"/>
				<stop  offset="0.778" style="stop-color:#F98845"/>
				<stop  offset="0.8726" style="stop-color:#F98E3D"/>
			</linearGradient>
			
				<rect x="267.58" y="53.55" style="fill:url(#SVGID_00000140014002791203607520000000154025277924927679_);stroke:#000000;stroke-miterlimit:10;" width="18.65" height="18.65"/>
			<text transform="matrix(1 0 0 1 273.829 66.292)" class="st0 st3">1</text>
			
				<linearGradient id="SVGID_00000181073568870545116090000014193533835163538091_" gradientUnits="userSpaceOnUse" x1="286.317" y1="62.8771" x2="304.9645" y2="62.8771">
				<stop  offset="0" style="stop-color:#F656A0"/>
				<stop  offset="0.308" style="stop-color:#F66A7B"/>
				<stop  offset="0.5843" style="stop-color:#F77B5C"/>
				<stop  offset="0.778" style="stop-color:#F98845"/>
				<stop  offset="0.8726" style="stop-color:#F98E3D"/>
			</linearGradient>
			
				<rect x="286.32" y="53.55" style="fill:url(#SVGID_00000181073568870545116090000014193533835163538091_);stroke:#000000;stroke-miterlimit:10;" width="18.65" height="18.65"/>
			<text transform="matrix(1 0 0 1 294.5503 63.7414)" class="st0 st3">.</text>
			
				<linearGradient id="SVGID_00000098912647607399870640000006539274794223954589_" gradientUnits="userSpaceOnUse" x1="304.9645" y1="62.8771" x2="323.612" y2="62.8771">
				<stop  offset="0" style="stop-color:#F656A0"/>
				<stop  offset="0.308" style="stop-color:#F66A7B"/>
				<stop  offset="0.5843" style="stop-color:#F77B5C"/>
				<stop  offset="0.778" style="stop-color:#F98845"/>
				<stop  offset="0.8726" style="stop-color:#F98E3D"/>
			</linearGradient>
			
				<rect x="304.96" y="53.55" style="fill:url(#SVGID_00000098912647607399870640000006539274794223954589_);stroke:#000000;stroke-miterlimit:10;" width="18.65" height="18.65"/>
			<text transform="matrix(1 0 0 1 313.1978 63.7414)" class="st0 st3">.</text>
			
				<linearGradient id="SVGID_00000067209160087810090990000011872913257384704660_" gradientUnits="userSpaceOnUse" x1="323.815" y1="62.8771" x2="342.4625" y2="62.8771">
				<stop  offset="0" style="stop-color:#F656A0"/>
				<stop  offset="0.308" style="stop-color:#F66A7B"/>
				<stop  offset="0.5843" style="stop-color:#F77B5C"/>
				<stop  offset="0.778" style="stop-color:#F98845"/>
				<stop  offset="0.8726" style="stop-color:#F98E3D"/>
			</linearGradient>
			
				<rect x="323.82" y="53.55" style="fill:url(#SVGID_00000067209160087810090990000011872913257384704660_);stroke:#000000;stroke-miterlimit:10;" width="18.65" height="18.65"/>
			<text transform="matrix(1 0 0 1 332.0483 63.7414)" class="st0 st3">.</text>
			
				<linearGradient id="SVGID_00000129192682923183305210000011598762442410951309_" gradientUnits="userSpaceOnUse" x1="343.11" y1="62.8771" x2="361.7574" y2="62.8771">
				<stop  offset="0" style="stop-color:#F656A0"/>
				<stop  offset="0.308" style="stop-color:#F66A7B"/>
				<stop  offset="0.5843" style="stop-color:#F77B5C"/>
				<stop  offset="0.778" style="stop-color:#F98845"/>
				<stop  offset="0.8726" style="stop-color:#F98E3D"/>
			</linearGradient>
			
				<rect x="343.11" y="53.55" style="fill:url(#SVGID_00000129192682923183305210000011598762442410951309_);stroke:#000000;stroke-miterlimit:10;" width="18.65" height="18.65"/>
			<text transform="matrix(1 0 0 1 345.069 66.2915)" class="st0 st3">n-1</text>
		</g>
		<line class="st4" x1="193.36" y1="108.91" x2="262.08" y2="28.44"/>
		<rect x="248.61" y="19.77" class="st17" width="112.82" height="18.65"/>
		<text transform="matrix(0.9325 0 0 1 265.8274 33.0293)" class="st0 st18">CrossCorrBlock</text>
	</g>
	<g>
		<g>
			
				<linearGradient id="SVGID_00000005954910709358087950000005660024666503699903_" gradientUnits="userSpaceOnUse" x1="248.9357" y1="141.717" x2="267.5832" y2="141.717">
				<stop  offset="0" style="stop-color:#F656A0"/>
				<stop  offset="0.308" style="stop-color:#F66A7B"/>
				<stop  offset="0.5843" style="stop-color:#F77B5C"/>
				<stop  offset="0.778" style="stop-color:#F98845"/>
				<stop  offset="0.8726" style="stop-color:#F98E3D"/>
			</linearGradient>
			
				<rect x="248.94" y="132.39" style="fill:url(#SVGID_00000005954910709358087950000005660024666503699903_);stroke:#000000;stroke-miterlimit:10;" width="18.65" height="18.65"/>
			<text transform="matrix(1 0 0 1 255.1815 145.2387)" class="st0 st3">0</text>
			
				<linearGradient id="SVGID_00000022529537987919621500000012485210674712763035_" gradientUnits="userSpaceOnUse" x1="267.5832" y1="141.717" x2="286.2307" y2="141.717">
				<stop  offset="0" style="stop-color:#F656A0"/>
				<stop  offset="0.308" style="stop-color:#F66A7B"/>
				<stop  offset="0.5843" style="stop-color:#F77B5C"/>
				<stop  offset="0.778" style="stop-color:#F98845"/>
				<stop  offset="0.8726" style="stop-color:#F98E3D"/>
			</linearGradient>
			
				<rect x="267.58" y="132.39" style="fill:url(#SVGID_00000022529537987919621500000012485210674712763035_);stroke:#000000;stroke-miterlimit:10;" width="18.65" height="18.65"/>
			<text transform="matrix(1 0 0 1 273.829 145.1318)" class="st0 st3">1</text>
			
				<linearGradient id="SVGID_00000175289009250395946680000007050863979317749665_" gradientUnits="userSpaceOnUse" x1="286.317" y1="141.717" x2="304.9645" y2="141.717">
				<stop  offset="0" style="stop-color:#F656A0"/>
				<stop  offset="0.308" style="stop-color:#F66A7B"/>
				<stop  offset="0.5843" style="stop-color:#F77B5C"/>
				<stop  offset="0.778" style="stop-color:#F98845"/>
				<stop  offset="0.8726" style="stop-color:#F98E3D"/>
			</linearGradient>
			
				<rect x="286.32" y="132.39" style="fill:url(#SVGID_00000175289009250395946680000007050863979317749665_);stroke:#000000;stroke-miterlimit:10;" width="18.65" height="18.65"/>
			<text transform="matrix(1 0 0 1 294.5503 142.5813)" class="st0 st3">.</text>
			
				<linearGradient id="SVGID_00000093139937838505603190000005874835104790717320_" gradientUnits="userSpaceOnUse" x1="304.9645" y1="141.717" x2="323.612" y2="141.717">
				<stop  offset="0" style="stop-color:#F656A0"/>
				<stop  offset="0.308" style="stop-color:#F66A7B"/>
				<stop  offset="0.5843" style="stop-color:#F77B5C"/>
				<stop  offset="0.778" style="stop-color:#F98845"/>
				<stop  offset="0.8726" style="stop-color:#F98E3D"/>
			</linearGradient>
			
				<rect x="304.96" y="132.39" style="fill:url(#SVGID_00000093139937838505603190000005874835104790717320_);stroke:#000000;stroke-miterlimit:10;" width="18.65" height="18.65"/>
			<text transform="matrix(1 0 0 1 313.1978 142.5813)" class="st0 st3">.</text>
			
				<linearGradient id="SVGID_00000146470773456157833150000012139472149865280446_" gradientUnits="userSpaceOnUse" x1="323.815" y1="141.717" x2="342.4625" y2="141.717">
				<stop  offset="0" style="stop-color:#F656A0"/>
				<stop  offset="0.308" style="stop-color:#F66A7B"/>
				<stop  offset="0.5843" style="stop-color:#F77B5C"/>
				<stop  offset="0.778" style="stop-color:#F98845"/>
				<stop  offset="0.8726" style="stop-color:#F98E3D"/>
			</linearGradient>
			
				<rect x="323.82" y="132.39" style="fill:url(#SVGID_00000146470773456157833150000012139472149865280446_);stroke:#000000;stroke-miterlimit:10;" width="18.65" height="18.65"/>
			<text transform="matrix(1 0 0 1 332.0483 142.5813)" class="st0 st3">.</text>
			
				<linearGradient id="SVGID_00000072270261598913448920000004409268320947048626_" gradientUnits="userSpaceOnUse" x1="343.11" y1="141.717" x2="361.7574" y2="141.717">
				<stop  offset="0" style="stop-color:#F656A0"/>
				<stop  offset="0.308" style="stop-color:#F66A7B"/>
				<stop  offset="0.5843" style="stop-color:#F77B5C"/>
				<stop  offset="0.778" style="stop-color:#F98845"/>
				<stop  offset="0.8726" style="stop-color:#F98E3D"/>
			</linearGradient>
			
				<rect x="343.11" y="132.39" style="fill:url(#SVGID_00000072270261598913448920000004409268320947048626_);stroke:#000000;stroke-miterlimit:10;" width="18.65" height="18.65"/>
			<text transform="matrix(1 0 0 1 345.069 145.1314)" class="st0 st3">n-1</text>
		</g>
		<line class="st4" x1="193.36" y1="187.75" x2="262.08" y2="107.28"/>
		<rect x="248.61" y="98.61" class="st17" width="112.82" height="18.65"/>
		<text transform="matrix(0.9325 0 0 1 265.8274 111.8692)" class="st0 st18">CrossCorrBlock</text>
	</g>
	<g>
		
			<linearGradient id="SVGID_00000086671174243487995660000013048437537443118267_" gradientUnits="userSpaceOnUse" x1="248.9357" y1="299.5555" x2="267.5832" y2="299.5555">
			<stop  offset="0" style="stop-color:#F656A0"/>
			<stop  offset="0.308" style="stop-color:#F66A7B"/>
			<stop  offset="0.5843" style="stop-color:#F77B5C"/>
			<stop  offset="0.778" style="stop-color:#F98845"/>
			<stop  offset="0.8726" style="stop-color:#F98E3D"/>
		</linearGradient>
		
			<rect x="248.94" y="290.23" style="fill:url(#SVGID_00000086671174243487995660000013048437537443118267_);stroke:#000000;stroke-miterlimit:10;" width="18.65" height="18.65"/>
		<text transform="matrix(1 0 0 1 255.1815 303.0772)" class="st0 st3">0</text>
		
			<linearGradient id="SVGID_00000008134077534582524800000013016921897334839966_" gradientUnits="userSpaceOnUse" x1="267.5832" y1="299.5555" x2="286.2307" y2="299.5555">
			<stop  offset="0" style="stop-color:#F656A0"/>
			<stop  offset="0.308" style="stop-color:#F66A7B"/>
			<stop  offset="0.5843" style="stop-color:#F77B5C"/>
			<stop  offset="0.778" style="stop-color:#F98845"/>
			<stop  offset="0.8726" style="stop-color:#F98E3D"/>
		</linearGradient>
		
			<rect x="267.58" y="290.23" style="fill:url(#SVGID_00000008134077534582524800000013016921897334839966_);stroke:#000000;stroke-miterlimit:10;" width="18.65" height="18.65"/>
		<text transform="matrix(1 0 0 1 273.829 302.9703)" class="st0 st3">1</text>
		
			<linearGradient id="SVGID_00000173145688284635971690000007961716846575025804_" gradientUnits="userSpaceOnUse" x1="286.317" y1="299.5555" x2="304.9645" y2="299.5555">
			<stop  offset="0" style="stop-color:#F656A0"/>
			<stop  offset="0.308" style="stop-color:#F66A7B"/>
			<stop  offset="0.5843" style="stop-color:#F77B5C"/>
			<stop  offset="0.778" style="stop-color:#F98845"/>
			<stop  offset="0.8726" style="stop-color:#F98E3D"/>
		</linearGradient>
		
			<rect x="286.32" y="290.23" style="fill:url(#SVGID_00000173145688284635971690000007961716846575025804_);stroke:#000000;stroke-miterlimit:10;" width="18.65" height="18.65"/>
		<text transform="matrix(1 0 0 1 294.5503 300.4198)" class="st0 st3">.</text>
		
			<linearGradient id="SVGID_00000052810158639647763470000007687288395336411290_" gradientUnits="userSpaceOnUse" x1="304.9645" y1="299.5555" x2="323.612" y2="299.5555">
			<stop  offset="0" style="stop-color:#F656A0"/>
			<stop  offset="0.308" style="stop-color:#F66A7B"/>
			<stop  offset="0.5843" style="stop-color:#F77B5C"/>
			<stop  offset="0.778" style="stop-color:#F98845"/>
			<stop  offset="0.8726" style="stop-color:#F98E3D"/>
		</linearGradient>
		
			<rect x="304.96" y="290.23" style="fill:url(#SVGID_00000052810158639647763470000007687288395336411290_);stroke:#000000;stroke-miterlimit:10;" width="18.65" height="18.65"/>
		<text transform="matrix(1 0 0 1 313.1978 300.4198)" class="st0 st3">.</text>
		
			<linearGradient id="SVGID_00000080186022786379822620000009573678439171612328_" gradientUnits="userSpaceOnUse" x1="323.815" y1="299.5555" x2="342.4625" y2="299.5555">
			<stop  offset="0" style="stop-color:#F656A0"/>
			<stop  offset="0.308" style="stop-color:#F66A7B"/>
			<stop  offset="0.5843" style="stop-color:#F77B5C"/>
			<stop  offset="0.778" style="stop-color:#F98845"/>
			<stop  offset="0.8726" style="stop-color:#F98E3D"/>
		</linearGradient>
		
			<rect x="323.82" y="290.23" style="fill:url(#SVGID_00000080186022786379822620000009573678439171612328_);stroke:#000000;stroke-miterlimit:10;" width="18.65" height="18.65"/>
		<text transform="matrix(1 0 0 1 332.0483 300.4198)" class="st0 st3">.</text>
		
			<linearGradient id="SVGID_00000129917334006364900250000000059545666431267206_" gradientUnits="userSpaceOnUse" x1="343.11" y1="299.5555" x2="361.7574" y2="299.5555">
			<stop  offset="0" style="stop-color:#F656A0"/>
			<stop  offset="0.308" style="stop-color:#F66A7B"/>
			<stop  offset="0.5843" style="stop-color:#F77B5C"/>
			<stop  offset="0.778" style="stop-color:#F98845"/>
			<stop  offset="0.8726" style="stop-color:#F98E3D"/>
		</linearGradient>
		
			<rect x="343.11" y="290.23" style="fill:url(#SVGID_00000129917334006364900250000000059545666431267206_);stroke:#000000;stroke-miterlimit:10;" width="18.65" height="18.65"/>
		<text transform="matrix(1 0 0 1 345.069 302.9699)" class="st0 st3">n-1</text>
	</g>
	<line class="st4" x1="193.36" y1="345.58" x2="262.08" y2="265.12"/>
	<rect x="248.61" y="256.45" class="st17" width="112.82" height="18.65"/>
	<text transform="matrix(0.9325 0 0 1 265.8274 269.7077)" class="st0 st18">CrossCorrBlock</text>
	<rect x="101.04" y="19.78" class="st31" width="64.49" height="16.79"/>
	<text transform="matrix(1.1417 0 0 1 103.0944 33.0292)" class="st0 st32">Var stride </text>
	<g>
		<g>
			<line class="st33" x1="165.95" y1="28.16" x2="241.55" y2="28.16"/>
			<g>
				<polygon points="248.61,28.16 238.66,32.23 241.02,28.16 238.66,24.1 				"/>
			</g>
		</g>
	</g>
	<line class="st33" x1="233.42" y1="28.18" x2="233.42" y2="266.26"/>
	<g>
		<g>
			<line class="st33" x1="241.55" y1="107.98" x2="233.42" y2="107.98"/>
			<g>
				<polygon points="248.61,107.98 238.66,103.92 241.02,107.98 238.66,112.05 				"/>
			</g>
		</g>
	</g>
	<g>
		<g>
			<line class="st33" x1="241.55" y1="265.77" x2="233.3" y2="265.77"/>
			<g>
				<polygon points="248.61,265.77 238.66,261.7 241.02,265.77 238.66,269.83 				"/>
			</g>
		</g>
	</g>
	<g>
		<g>
			<line class="st33" x1="203.45" y1="218.1" x2="204.15" y2="215.7"/>
			<line class="st34" x1="205.59" y1="210.75" x2="245.22" y2="74.53"/>
			<line class="st33" x1="245.94" y1="72.06" x2="246.64" y2="69.66"/>
			<g>
				<polygon points="248.61,62.88 249.74,73.57 246.49,70.16 241.93,71.29 				"/>
			</g>
		</g>
	</g>
	<g>
		<g>
			<line class="st33" x1="203.45" y1="218.1" x2="204.74" y2="215.95"/>
			<line class="st35" x1="207.34" y1="211.61" x2="242.4" y2="153.01"/>
			<line class="st33" x1="243.7" y1="150.84" x2="244.99" y2="148.69"/>
			<g>
				<polygon points="248.61,142.63 246.99,153.26 244.71,149.15 240.01,149.08 				"/>
			</g>
		</g>
	</g>
	<g>
		<g>
			<line class="st33" x1="203.83" y1="219.14" x2="205.04" y2="221.33"/>
			<line class="st36" x1="207.33" y1="225.49" x2="242.85" y2="289.97"/>
			<line class="st33" x1="244" y1="292.05" x2="245.2" y2="294.24"/>
			<g>
				<polygon points="248.61,300.42 240.25,293.67 244.95,293.77 247.37,289.74 				"/>
			</g>
		</g>
	</g>
	<g>
		<g>
			<line class="st33" x1="122.39" y1="218.1" x2="133.37" y2="218.1"/>
			<g>
				<polygon points="140.43,218.1 130.48,222.16 132.84,218.1 130.48,214.03 				"/>
			</g>
		</g>
	</g>
	<text transform="matrix(0.9236 0 0 1 23.5272 202.597)" class="st0 st37">Input_vector</text>
	<rect x="392.06" y="19.77" class="st38" width="78.34" height="18.65"/>
	<text transform="matrix(1.1241 0 0 1 415.4681 34.9547)" class="st0 st39">ELU</text>
	<rect x="392.06" y="98.61" class="st38" width="78.34" height="18.65"/>
	<text transform="matrix(1.1241 0 0 1 415.4681 113.7945)" class="st0 st39">ELU</text>
	<rect x="392.06" y="256.45" class="st38" width="78.34" height="18.65"/>
	<text transform="matrix(1.1241 0 0 1 415.4681 271.633)" class="st0 st39">ELU</text>
	<g>
		<g>
			<line class="st33" x1="361.76" y1="29.09" x2="385" y2="29.09"/>
			<g>
				<polygon points="392.06,29.09 382.11,33.16 384.47,29.09 382.11,25.03 				"/>
			</g>
		</g>
	</g>
	<g>
		<g>
			<line class="st33" x1="361.76" y1="107.98" x2="385" y2="107.98"/>
			<g>
				<polygon points="392.06,107.98 382.11,112.05 384.47,107.98 382.11,103.92 				"/>
			</g>
		</g>
	</g>
	<g>
		<g>
			<line class="st33" x1="361.76" y1="266.26" x2="385" y2="266.26"/>
			<g>
				<polygon points="392.06,266.26 382.11,270.32 384.47,266.26 382.11,262.19 				"/>
			</g>
		</g>
	</g>
	<g>
		<g>
			<line class="st33" x1="470.4" y1="28.16" x2="497.87" y2="28.16"/>
			<g>
				<polygon points="504.93,28.16 494.98,32.23 497.34,28.16 494.98,24.1 				"/>
			</g>
		</g>
	</g>
	<g>
		<g>
			<line class="st33" x1="470.4" y1="107.93" x2="497.87" y2="107.93"/>
			<g>
				<polygon points="504.93,107.93 494.98,112 497.34,107.93 494.98,103.87 				"/>
			</g>
		</g>
	</g>
	<g>
		<g>
			<line class="st33" x1="470.4" y1="265.77" x2="497.87" y2="265.77"/>
			<g>
				<polygon points="504.93,265.77 494.98,269.84 497.34,265.77 494.98,261.71 				"/>
			</g>
		</g>
	</g>
	<rect x="489.29" y="15.74" class="st40" width="60.09" height="261.41"/>
	<text transform="matrix(6.123234e-17 -1 1 6.123234e-17 529.0199 215.3135)" class="st0 st41">Next layer</text>
</g>
<g id="Wight_x5F_kernal">
	
		<rect x="128.64" y="94.13" transform="matrix(6.123234e-17 -1 1 6.123234e-17 48.3047 250.3672)" class="st42" width="41.4" height="13.8"/>
	
		<rect x="156.24" y="94.13" transform="matrix(6.123234e-17 -1 1 6.123234e-17 75.9051 277.9677)" class="st42" width="41.4" height="13.8"/>
	<rect x="100.94" y="66.53" class="st42" width="96.69" height="13.8"/>
	<text transform="matrix(0.9964 0 0 1 117.9067 76.5366)" class="st0 st43">Wight_kernal</text>
	<rect x="100.94" y="80.33" class="st42" width="96.69" height="13.8"/>
	
		<rect x="87.23" y="94.13" transform="matrix(6.123234e-17 -1 1 6.123234e-17 6.904 208.9665)" class="st42" width="41.4" height="13.8"/>
	
		<rect x="101.04" y="94.13" transform="matrix(6.123234e-17 -1 1 6.123234e-17 20.7042 222.7668)" class="st42" width="41.4" height="13.8"/>
	
		<rect x="114.84" y="94.13" transform="matrix(6.123234e-17 -1 1 6.123234e-17 34.5044 236.567)" class="st42" width="41.4" height="13.8"/>
	
		<rect x="142.44" y="94.13" transform="matrix(6.123234e-17 -1 1 6.123234e-17 62.1049 264.1675)" class="st42" width="41.4" height="13.8"/>
	
		<rect x="170.04" y="94.13" transform="matrix(6.123234e-17 -1 1 6.123234e-17 89.7054 291.7679)" class="st42" width="41.4" height="13.8"/>
	<rect x="100.99" y="94.13" class="st33" width="96.69" height="13.8"/>
	<rect x="100.99" y="80.33" class="st33" width="96.69" height="13.8"/>
	<path class="st44" d="M213.99,73.43"/>
	<path class="st44" d="M197.68,73.43"/>
	<path class="st33" d="M213.99,5.35"/>
	<path class="st33" d="M213.99,73.86"/>
	<line class="st33" x1="213.99" y1="5.83" x2="304.96" y2="5.83"/>
	<g>
		<g>
			<line class="st33" x1="305.02" y1="5.33" x2="305.02" y2="12.71"/>
			<g>
				<polygon points="305.02,19.77 300.96,9.82 305.02,12.18 309.09,9.82 				"/>
			</g>
		</g>
	</g>
	<line class="st33" x1="213.99" y1="5.83" x2="213.99" y2="239.35"/>
	<line class="st33" x1="213.99" y1="87.23" x2="304.96" y2="87.23"/>
	<line class="st33" x1="213.99" y1="239.35" x2="304.96" y2="239.35"/>
	<g>
		<g>
			<line class="st33" x1="305.02" y1="86.74" x2="305.02" y2="91.36"/>
			<g>
				<polygon points="305.02,98.42 300.96,88.47 305.02,90.83 309.09,88.47 				"/>
			</g>
		</g>
	</g>
	<g>
		<g>
			<line class="st33" x1="305.02" y1="238.86" x2="305.02" y2="249.32"/>
			<g>
				<polygon points="305.02,256.38 300.96,246.43 305.02,248.79 309.09,246.43 				"/>
			</g>
		</g>
	</g>
	<line class="st33" x1="197.68" y1="73.43" x2="213.99" y2="73.43"/>
</g>
</svg>
